<mxfile host="Electron" agent="Mozilla/5.0 (Windows NT 10.0; Win64; x64) AppleWebKit/537.36 (KHTML, like Gecko) draw.io/26.2.2 Chrome/134.0.6998.178 Electron/35.1.2 Safari/537.36" version="26.2.2">
  <diagram name="Page-1" id="KdgNcee-aODST-VSIGgP">
    <mxGraphModel dx="3037" dy="521" grid="1" gridSize="10" guides="1" tooltips="1" connect="1" arrows="1" fold="1" page="1" pageScale="1" pageWidth="850" pageHeight="1100" math="0" shadow="0">
      <root>
        <mxCell id="0" />
        <mxCell id="1" parent="0" />
        <mxCell id="RYpzuUhJRHO_QIAWk-TS-28" value="" style="rounded=0;whiteSpace=wrap;html=1;" parent="1" vertex="1">
          <mxGeometry x="-2450" y="360" width="530" height="240" as="geometry" />
        </mxCell>
        <mxCell id="RYpzuUhJRHO_QIAWk-TS-1" value="User" style="shape=umlActor;verticalLabelPosition=bottom;verticalAlign=top;html=1;outlineConnect=0;" parent="1" vertex="1">
          <mxGeometry x="-2440" y="50" width="30" height="60" as="geometry" />
        </mxCell>
        <mxCell id="RYpzuUhJRHO_QIAWk-TS-2" value="" style="endArrow=none;dashed=1;html=1;rounded=0;" parent="1" edge="1">
          <mxGeometry width="50" height="50" relative="1" as="geometry">
            <mxPoint x="-2425" y="630" as="sourcePoint" />
            <mxPoint x="-2425.5" y="120" as="targetPoint" />
          </mxGeometry>
        </mxCell>
        <mxCell id="RYpzuUhJRHO_QIAWk-TS-12" value="Menu" style="rounded=1;whiteSpace=wrap;html=1;" parent="1" vertex="1">
          <mxGeometry x="-2260" y="60" width="80" height="40" as="geometry" />
        </mxCell>
        <mxCell id="RYpzuUhJRHO_QIAWk-TS-13" value="" style="endArrow=none;dashed=1;html=1;rounded=0;" parent="1" edge="1">
          <mxGeometry width="50" height="50" relative="1" as="geometry">
            <mxPoint x="-2220" y="640" as="sourcePoint" />
            <mxPoint x="-2220" y="100" as="targetPoint" />
          </mxGeometry>
        </mxCell>
        <mxCell id="RYpzuUhJRHO_QIAWk-TS-14" value="" style="endArrow=classic;html=1;rounded=0;" parent="1" edge="1">
          <mxGeometry width="50" height="50" relative="1" as="geometry">
            <mxPoint x="-2420" y="160" as="sourcePoint" />
            <mxPoint x="-2220" y="160" as="targetPoint" />
          </mxGeometry>
        </mxCell>
        <mxCell id="RYpzuUhJRHO_QIAWk-TS-19" value="" style="endArrow=classic;html=1;rounded=0;" parent="1" edge="1">
          <mxGeometry width="50" height="50" relative="1" as="geometry">
            <mxPoint x="-2350" y="160" as="sourcePoint" />
            <mxPoint x="-2350" y="160" as="targetPoint" />
          </mxGeometry>
        </mxCell>
        <mxCell id="RYpzuUhJRHO_QIAWk-TS-20" value="" style="endArrow=classic;html=1;rounded=0;dashed=1;" parent="1" edge="1">
          <mxGeometry width="50" height="50" relative="1" as="geometry">
            <mxPoint x="-2220" y="210" as="sourcePoint" />
            <mxPoint x="-2430" y="210" as="targetPoint" />
          </mxGeometry>
        </mxCell>
        <mxCell id="RYpzuUhJRHO_QIAWk-TS-21" value="Present options (view,remove, remove all)" style="text;html=1;align=center;verticalAlign=middle;whiteSpace=wrap;rounded=0;" parent="1" vertex="1">
          <mxGeometry x="-2410" y="170" width="140" height="30" as="geometry" />
        </mxCell>
        <mxCell id="RYpzuUhJRHO_QIAWk-TS-22" value="Select &quot;Favourites&quot;" style="text;html=1;align=center;verticalAlign=middle;whiteSpace=wrap;rounded=0;" parent="1" vertex="1">
          <mxGeometry x="-2385" y="120" width="105" height="30" as="geometry" />
        </mxCell>
        <mxCell id="RYpzuUhJRHO_QIAWk-TS-23" value="" style="endArrow=classic;html=1;rounded=0;" parent="1" edge="1">
          <mxGeometry width="50" height="50" relative="1" as="geometry">
            <mxPoint x="-2430" y="250" as="sourcePoint" />
            <mxPoint x="-2220" y="250" as="targetPoint" />
          </mxGeometry>
        </mxCell>
        <mxCell id="RYpzuUhJRHO_QIAWk-TS-24" value="Choose &quot;View Favourite Services&quot;" style="text;html=1;align=center;verticalAlign=middle;whiteSpace=wrap;rounded=0;" parent="1" vertex="1">
          <mxGeometry x="-2415" y="220" width="190" height="30" as="geometry" />
        </mxCell>
        <mxCell id="RYpzuUhJRHO_QIAWk-TS-25" value="Find_Gyms" style="rounded=1;whiteSpace=wrap;html=1;" parent="1" vertex="1">
          <mxGeometry x="-2030" y="60" width="90" height="40" as="geometry" />
        </mxCell>
        <mxCell id="RYpzuUhJRHO_QIAWk-TS-26" value="" style="endArrow=none;dashed=1;html=1;rounded=0;entryX=0.5;entryY=1;entryDx=0;entryDy=0;" parent="1" target="RYpzuUhJRHO_QIAWk-TS-25" edge="1">
          <mxGeometry width="50" height="50" relative="1" as="geometry">
            <mxPoint x="-1985" y="650" as="sourcePoint" />
            <mxPoint x="-1980" y="130" as="targetPoint" />
          </mxGeometry>
        </mxCell>
        <mxCell id="RYpzuUhJRHO_QIAWk-TS-29" value="&lt;b&gt;&lt;font style=&quot;font-size: 15px;&quot;&gt;alt&lt;/font&gt;&lt;/b&gt;" style="rounded=1;whiteSpace=wrap;html=1;" parent="1" vertex="1">
          <mxGeometry x="-2450" y="360" width="100" height="50" as="geometry" />
        </mxCell>
        <mxCell id="RYpzuUhJRHO_QIAWk-TS-30" value="" style="endArrow=classic;html=1;rounded=0;" parent="1" edge="1">
          <mxGeometry width="50" height="50" relative="1" as="geometry">
            <mxPoint x="-2220" y="280" as="sourcePoint" />
            <mxPoint x="-1980" y="280" as="targetPoint" />
          </mxGeometry>
        </mxCell>
        <mxCell id="RYpzuUhJRHO_QIAWk-TS-32" value="showUserFavourites(user.getuser_id())" style="text;html=1;align=center;verticalAlign=middle;whiteSpace=wrap;rounded=0;" parent="1" vertex="1">
          <mxGeometry x="-2200" y="240" width="200" height="30" as="geometry" />
        </mxCell>
        <mxCell id="RYpzuUhJRHO_QIAWk-TS-34" value="Display list of favourite service names" style="text;html=1;align=center;verticalAlign=middle;whiteSpace=wrap;rounded=0;" parent="1" vertex="1">
          <mxGeometry x="-2425" y="420" width="200" height="30" as="geometry" />
        </mxCell>
        <mxCell id="RYpzuUhJRHO_QIAWk-TS-36" value="" style="endArrow=classic;html=1;rounded=0;dashed=1;" parent="1" edge="1">
          <mxGeometry width="50" height="50" relative="1" as="geometry">
            <mxPoint x="-1980" y="580" as="sourcePoint" />
            <mxPoint x="-2430" y="580" as="targetPoint" />
          </mxGeometry>
        </mxCell>
        <mxCell id="RYpzuUhJRHO_QIAWk-TS-37" value="Show &quot;No favourites found&quot;" style="text;html=1;align=center;verticalAlign=middle;whiteSpace=wrap;rounded=0;" parent="1" vertex="1">
          <mxGeometry x="-2420" y="540" width="190" height="30" as="geometry" />
        </mxCell>
        <mxCell id="RYpzuUhJRHO_QIAWk-TS-38" value="&lt;b&gt;&lt;font&gt;[Favourites found]&lt;/font&gt;&lt;/b&gt;" style="text;html=1;align=center;verticalAlign=middle;whiteSpace=wrap;rounded=0;" parent="1" vertex="1">
          <mxGeometry x="-2350" y="360" width="110" height="30" as="geometry" />
        </mxCell>
        <mxCell id="RYpzuUhJRHO_QIAWk-TS-44" value="" style="endArrow=classic;html=1;rounded=0;dashed=1;" parent="1" edge="1">
          <mxGeometry width="50" height="50" relative="1" as="geometry">
            <mxPoint x="-1980" y="450" as="sourcePoint" />
            <mxPoint x="-2420" y="450" as="targetPoint" />
          </mxGeometry>
        </mxCell>
        <mxCell id="RYpzuUhJRHO_QIAWk-TS-45" value="&lt;b&gt;&lt;font style=&quot;font-size: 13px;&quot;&gt;[No favourites&lt;/font&gt;&lt;/b&gt;" style="text;html=1;align=center;verticalAlign=middle;whiteSpace=wrap;rounded=0;" parent="1" vertex="1">
          <mxGeometry x="-2420" y="500" width="90" height="30" as="geometry" />
        </mxCell>
        <mxCell id="RYpzuUhJRHO_QIAWk-TS-58" value="Favourites" style="rounded=1;whiteSpace=wrap;html=1;" parent="1" vertex="1">
          <mxGeometry x="-1820" y="60" width="100" height="40" as="geometry" />
        </mxCell>
        <mxCell id="RYpzuUhJRHO_QIAWk-TS-59" value="" style="endArrow=none;dashed=1;html=1;rounded=0;" parent="1" edge="1">
          <mxGeometry width="50" height="50" relative="1" as="geometry">
            <mxPoint x="-1760" y="650" as="sourcePoint" />
            <mxPoint x="-1760" y="100" as="targetPoint" />
          </mxGeometry>
        </mxCell>
        <mxCell id="RYpzuUhJRHO_QIAWk-TS-60" value="" style="endArrow=none;html=1;rounded=0;" parent="1" edge="1">
          <mxGeometry width="50" height="50" relative="1" as="geometry">
            <mxPoint x="-1990" y="310" as="sourcePoint" />
            <mxPoint x="-1920" y="310" as="targetPoint" />
          </mxGeometry>
        </mxCell>
        <mxCell id="RYpzuUhJRHO_QIAWk-TS-61" value="" style="endArrow=none;html=1;rounded=0;" parent="1" edge="1">
          <mxGeometry width="50" height="50" relative="1" as="geometry">
            <mxPoint x="-1920" y="310" as="sourcePoint" />
            <mxPoint x="-1920" y="330" as="targetPoint" />
          </mxGeometry>
        </mxCell>
        <mxCell id="RYpzuUhJRHO_QIAWk-TS-62" value="" style="endArrow=classic;html=1;rounded=0;" parent="1" edge="1">
          <mxGeometry width="50" height="50" relative="1" as="geometry">
            <mxPoint x="-1920" y="330" as="sourcePoint" />
            <mxPoint x="-1990" y="330" as="targetPoint" />
          </mxGeometry>
        </mxCell>
        <mxCell id="RYpzuUhJRHO_QIAWk-TS-63" value="Iterate favouritesList" style="text;html=1;align=center;verticalAlign=middle;whiteSpace=wrap;rounded=0;" parent="1" vertex="1">
          <mxGeometry x="-1960" y="270" width="130" height="30" as="geometry" />
        </mxCell>
        <mxCell id="RYpzuUhJRHO_QIAWk-TS-64" value="" style="endArrow=none;dashed=1;html=1;rounded=0;entryX=0.002;entryY=0.548;entryDx=0;entryDy=0;entryPerimeter=0;" parent="1" target="RYpzuUhJRHO_QIAWk-TS-28" edge="1">
          <mxGeometry width="50" height="50" relative="1" as="geometry">
            <mxPoint x="-1920" y="490" as="sourcePoint" />
            <mxPoint x="-1870" y="440" as="targetPoint" />
          </mxGeometry>
        </mxCell>
      </root>
    </mxGraphModel>
  </diagram>
</mxfile>
